<?xml version="1.0" encoding="utf-8"?>
<!-- Generator: Adobe Illustrator 16.0.4, SVG Export Plug-In . SVG Version: 6.00 Build 0)  -->
<!DOCTYPE svg PUBLIC "-//W3C//DTD SVG 1.1//EN" "http://www.w3.org/Graphics/SVG/1.1/DTD/svg11.dtd">
<svg version="1.1" id="Layer_1" xmlns="http://www.w3.org/2000/svg" xmlns:xlink="http://www.w3.org/1999/xlink" x="0px" y="0px"
	 width="236.359px" height="40px" viewBox="0 0 236.359 40" enable-background="new 0 0 236.359 40" xml:space="preserve">
<g>
	<path fill="#FFFFFF" d="M65.314,0.788h-6.072v31.138h6.072V0.788z M57.767,0.788h-6.071v31.138h6.071V0.788z M34.868,18.135
		c0.347-3.036,1.908-4.857,4.771-4.857c1.908,0,4.337,1.127,4.684,4.857H34.868z M44.063,25.161
		c-0.521,1.647-2.255,2.515-3.903,2.515c-4.944,0-5.291-3.902-5.378-5.638h15.786v-1.04c0-10.583-6.245-12.751-10.842-12.751
		c-10.148,0-11.103,8.847-11.103,11.709c0,9.542,5.031,12.664,11.449,12.664c3.99,0,8.501-1.821,10.148-7.372L44.063,25.161
		L44.063,25.161z M27.756,11.022C27.409,6.426,23.593,0.007,14.312,0.007C6.332,0.007,0,5.558,0,16.487
		c0,10.755,5.897,16.394,14.225,16.394c7.807,0,12.23-4.771,13.531-11.449H21.25c-0.78,3.816-3.296,5.897-6.938,5.897
		c-5.465,0-7.72-5.03-7.72-10.668c0-8.847,4.597-10.842,7.72-10.842c5.378,0,6.419,3.47,6.938,5.378h6.506V11.022z"/>
	<g>
		<path fill="#FFFFFF" d="M77.37,0.701h16.827c5.551,0,9.107,3.903,9.107,8.587c0,3.643-1.475,6.418-4.944,7.806v0.087
			c3.383,0.867,4.337,4.163,4.51,7.286c0.174,1.995,0.087,5.639,1.302,7.373H97.32c-0.867-1.995-0.78-4.944-1.128-7.459
			c-0.521-3.297-1.734-4.685-5.204-4.685h-6.853v12.229h-6.852L77.37,0.701L77.37,0.701z M84.222,14.839h7.547
			c3.035,0,4.684-1.301,4.684-4.423c0-3.036-1.648-4.337-4.684-4.337h-7.547V14.839z"/>
		<path fill="#FFFFFF" d="M111.284,22.125c0.174,3.903,2.082,5.725,5.551,5.725c2.516,0,4.511-1.561,4.857-2.949h5.465
			c-1.734,5.291-5.465,7.633-10.582,7.633c-7.112,0-11.536-4.857-11.536-11.883c0-6.766,4.684-11.97,11.536-11.97
			c7.72,0,11.362,6.505,10.929,13.444H111.284z M121.346,18.222c-0.607-3.123-1.908-4.771-4.944-4.771
			c-3.903,0-5.03,3.036-5.117,4.771H121.346z"/>
		<path fill="#FFFFFF" d="M130.194,9.375h5.897v2.862h0.087c1.475-2.429,3.903-3.469,6.766-3.469
			c7.112,0,10.235,5.725,10.235,12.143c0,6.072-3.296,11.71-9.889,11.71c-2.688,0-5.291-1.214-6.766-3.383h-0.086v10.756h-6.245
			V9.375L130.194,9.375z M147.021,20.65c0-3.556-1.475-7.286-5.378-7.286c-4.077,0-5.378,3.643-5.378,7.286
			c0,3.643,1.388,7.199,5.378,7.199C145.719,27.85,147.021,24.381,147.021,20.65z"/>
		<path fill="#FFFFFF" d="M167.23,8.681c7.113,0,11.71,4.684,11.71,11.97c0,7.199-4.597,11.883-11.71,11.883
			c-7.112,0-11.709-4.684-11.709-11.883C155.608,13.451,160.204,8.681,167.23,8.681z M167.23,27.85c4.251,0,5.465-3.643,5.465-7.199
			c0-3.643-1.301-7.286-5.465-7.286c-4.163,0-5.464,3.643-5.464,7.286C161.853,24.207,163.067,27.85,167.23,27.85z"/>
		<path fill="#FFFFFF" d="M181.889,9.375h5.898v4.164h0.086c1.128-2.862,4.164-4.771,7.199-4.771c0.435,0,0.954,0.086,1.389,0.26
			v5.725c-0.607-0.173-1.475-0.26-2.256-0.26c-4.51,0-6.158,3.296-6.158,7.286v10.147h-6.245V9.375H181.889z"/>
		<path fill="#FFFFFF" d="M208.865,9.375h4.51v4.164h-4.51v11.188c0,2.082,0.521,2.603,2.602,2.603c0.694,0,1.302-0.087,1.908-0.173
			v4.857c-1.041,0.173-2.429,0.26-3.643,0.26c-3.816,0-7.112-0.867-7.112-5.378V13.538h-3.73V9.375h3.73V2.609h6.245V9.375z"/>
		<path fill="#FFFFFF" d="M221.268,24.554c0.087,2.688,2.342,3.816,4.771,3.816c1.821,0,4.076-0.694,4.076-2.862
			c0-1.908-2.602-2.516-7.025-3.47c-3.557-0.78-7.199-2.082-7.199-6.071c0-5.725,4.944-7.286,9.802-7.286
			c4.943,0,9.454,1.648,9.975,7.199h-5.812c-0.174-2.429-1.995-3.036-4.25-3.036c-1.388,0-3.47,0.26-3.47,2.082
			c0,2.255,3.47,2.516,7.025,3.383c3.644,0.867,7.199,2.168,7.199,6.332c0,5.984-5.117,7.893-10.321,7.893
			s-10.322-1.994-10.582-7.979H221.268L221.268,24.554z"/>
	</g>
</g>
</svg>
